<?xml version="1.0" encoding="utf-8"?>
<!-- Generator: Adobe Illustrator 16.0.4, SVG Export Plug-In . SVG Version: 6.00 Build 0)  -->
<!DOCTYPE svg PUBLIC "-//W3C//DTD SVG 1.1//EN" "http://www.w3.org/Graphics/SVG/1.1/DTD/svg11.dtd">
<svg version="1.1" id="Layer_1" xmlns="http://www.w3.org/2000/svg" xmlns:xlink="http://www.w3.org/1999/xlink" x="0px" y="0px"
	 width="512px" height="512px" viewBox="0 0 512 512" enable-background="new 0 0 512 512" xml:space="preserve">
<g>
	<path fill="#969696" d="M511.996,481.896c0,16.556-13.541,30.104-30.104,30.104H30.105C13.541,512,0,498.451,0,481.896v-451.8
		C0,13.54,13.541,0,30.105,0h451.787c16.562,0,30.104,13.54,30.104,30.096V481.896z"/>
	<path id="Facebook_3_" fill="#FFFFFF" d="M220.232,177.275c0,6.898,0,37.738,0,37.738h-27.236v46.147h27.236v126.654h55.938
		V261.161h37.549c0,0,3.51-22.124,5.222-46.321c-4.892,0-42.556,0-42.556,0s0-26.85,0-31.55c0-4.718,6.113-11.054,12.129-11.054
		c6.029,0,18.736,0,30.492,0c0-6.287,0-27.99,0-48.057c-15.705,0-33.582,0-41.455,0C218.846,124.18,220.232,170.377,220.232,177.275
		z"/>
</g>
</svg>
