<?xml version="1.0" encoding="utf-8"?>
<!-- Generator: Adobe Illustrator 16.0.4, SVG Export Plug-In . SVG Version: 6.00 Build 0)  -->
<!DOCTYPE svg PUBLIC "-//W3C//DTD SVG 1.1//EN" "http://www.w3.org/Graphics/SVG/1.1/DTD/svg11.dtd">
<svg version="1.1" id="Layer_1" xmlns="http://www.w3.org/2000/svg" xmlns:xlink="http://www.w3.org/1999/xlink" x="0px" y="0px"
	 width="512px" height="512px" viewBox="0 0 512 512" enable-background="new 0 0 512 512" xml:space="preserve">
<g>
	<path fill="#969696" d="M511.993,481.896c0,16.556-13.546,30.104-30.104,30.104H30.103C13.546,512,0,498.451,0,481.896V30.104
		C0.001,13.543,13.547,0,30.103,0H481.89c16.558,0,30.104,13.543,30.104,30.104V481.896L511.993,481.896z"/>
	<g>
		<g>
			<g>
				<g>
					<path fill="#FFFFFF" d="M338.459,130.003H173.531c-25.818,0-46.938,20.567-46.938,45.703v160.583
						c0,25.136,21.12,45.703,46.938,45.703h164.928c25.823,0,46.941-20.567,46.941-45.703V175.706
						C385.4,150.57,364.282,130.003,338.459,130.003z M308.003,165.408c0.018-5.713,4.575-10.015,10.605-10.023
						c10.285-0.005,20.555-0.005,30.854,0c5.325,0.009,9.521,3.367,10.429,8.341c0.101,0.534,0.121,1.058,0.121,1.594
						c0,9.851,0.015,19.672,0,29.496c-0.016,4.968-3.5,8.931-8.642,9.817c-0.649,0.119-1.329,0.119-1.993,0.119
						c-5.147,0.021-10.282,0.014-15.425,0.014c-5.137,0-10.278-0.043-15.427,0.024c-4.604,0.067-9.605-3.112-10.439-8.6
						c-0.065-0.462-0.083-0.931-0.083-1.394C308.003,185.007,307.997,175.203,308.003,165.408z M255.996,204.772
						c28.728,0,52.007,22.121,52.007,49.409c0,27.295-23.25,49.375-52.015,49.358c-28.767,0-51.935-22.028-51.991-49.372
						C203.938,227.346,226.832,204.819,255.996,204.772z M360.012,235.797c0,29.25,0,58.521,0,87.792c0,6.476,0.015,12.952,0,19.448
						c-0.016,4.787-3.359,8.714-8.283,9.686c-0.956,0.194-1.971,0.223-2.934,0.223c-29.873,0.029-59.737,0.016-89.589,0.016
						c-31.977,0-63.957,0-95.927,0.014c-1.385,0-2.744-0.104-4.068-0.5c-4.029-1.221-6.84-4.572-7.186-8.565
						c-0.052-0.528-0.057-1.065-0.057-1.585c0-35.524,0-71.049,0-106.558c0-0.41,0-0.796,0-1.298c7.909,0,15.639,0,23.467,0
						c-5.318,20.508-2.752,40.062,8.054,58.486c7.701,13.112,18.611,23.262,32.464,30.507c13.697,7.176,28.463,10.501,44.073,9.632
						c26.104-1.452,47.055-12.296,62.961-31.979c15.188-20.227,19.62-42.434,13.618-66.614c7.758,0,15.525,0,23.405,0
						C360.012,234.937,360.012,235.364,360.012,235.797z"/>
				</g>
			</g>
		</g>
	</g>
</g>
</svg>
