<?xml version="1.0" encoding="utf-8"?>
<!-- Generator: Adobe Illustrator 16.0.4, SVG Export Plug-In . SVG Version: 6.00 Build 0)  -->
<!DOCTYPE svg PUBLIC "-//W3C//DTD SVG 1.1//EN" "http://www.w3.org/Graphics/SVG/1.1/DTD/svg11.dtd">
<svg version="1.1" id="Layer_1" xmlns="http://www.w3.org/2000/svg" xmlns:xlink="http://www.w3.org/1999/xlink" x="0px" y="0px"
	 width="512px" height="512px" viewBox="0 0 512 512" enable-background="new 0 0 512 512" xml:space="preserve">
<g>
	<path fill="#969696" d="M511.996,481.896c0,16.556-13.543,30.104-30.104,30.104H30.107c-16.557,0-30.104-13.549-30.104-30.104V30.1
		C0.004,13.544,13.551,0,30.107,0h451.785c16.562,0,30.104,13.544,30.104,30.1V481.896z"/>
	<g>
		<path fill="#FFFFFF" d="M398.202,167.785c-10.463,4.659-21.707,7.79-33.504,9.187c12.037-7.212,21.28-18.637,25.635-32.269
			c-11.27,6.676-23.752,11.55-37.035,14.16c-10.654-11.343-25.826-18.431-42.587-18.431c-32.229,0-58.367,26.13-58.367,58.349
			c0,4.568,0.521,9.021,1.525,13.301c-48.494-2.437-91.499-25.676-120.265-60.968c-5.014,8.617-7.91,18.637-7.91,29.344
			c0,20.231,10.307,38.093,25.975,48.559c-9.572-0.289-18.576-2.933-26.441-7.302c0,0.239,0,0.496,0,0.735
			c0,28.261,20.117,51.848,46.809,57.217c-4.906,1.339-10.053,2.058-15.373,2.058c-3.764,0-7.42-0.371-10.988-1.064
			c7.422,23.189,28.988,40.05,54.515,40.529c-19.978,15.639-45.122,24.974-72.466,24.974c-4.709,0-9.354-0.281-13.93-0.81
			c25.838,16.556,56.512,26.213,89.444,26.213c107.329,0,166.021-88.907,166.021-166.01c0-2.528-0.059-5.056-0.162-7.551
			C380.485,189.785,390.374,179.499,398.202,167.785z"/>
	</g>
</g>
</svg>
